<svg width="40" height="40" viewBox="0 0 40 40" fill="none" xmlns="http://www.w3.org/2000/svg">
<g id="Basket_alt_light">
<path id="Vector 8" d="M17.5 25.8333L15.8334 19.9999" stroke="#222222" stroke-linecap="round"/>
<path id="Vector" d="M14.1667 10.8333L10.8334 15.8333M25.8334 10.8333L29.1667 15.8333" stroke="#222222" stroke-linecap="round"/>
<path id="Vector 9" d="M22.5 25.8333L24.1667 19.9999" stroke="#222222" stroke-linecap="round"/>
<path id="Rectangle 41" d="M7.5 15.8333V15.8333C7.55906 15.8333 7.58859 15.8333 7.61484 15.8339C8.51277 15.8575 9.28482 16.4768 9.50263 17.3483C9.509 17.3738 9.51541 17.4026 9.52822 17.4602L11.8039 27.701C12.1376 29.2026 12.3045 29.9534 12.8529 30.3933C13.4013 30.8333 14.1704 30.8333 15.7087 30.8333H24.2913C25.8296 30.8333 26.5987 30.8333 27.1471 30.3933C27.6955 29.9534 27.8624 29.2026 28.1961 27.701L30.4718 17.4602C30.4846 17.4026 30.491 17.3738 30.4974 17.3483C30.7152 16.4768 31.4872 15.8575 32.3852 15.8339C32.4114 15.8333 32.4409 15.8333 32.5 15.8333V15.8333" stroke="#222222" stroke-linecap="round"/>
<path id="Vector 339" d="M5.83337 15.8333H34.1667" stroke="#222222" stroke-linecap="round"/>
</g>
</svg>
